<?xml version="1.0" encoding="UTF-8" standalone="no"?>
<!-- Created with Inkscape (http://www.inkscape.org/) -->

<svg
   width="224.47423mm"
   height="65.765884mm"
   viewBox="0 0 224.47423 65.765884"
   version="1.1"
   id="svg1"
   sodipodi:docname="logo_Studio411.svg"
   inkscape:version="1.3 (0e150ed6c4, 2023-07-21)"
   xml:space="preserve"
   xmlns:inkscape="http://www.inkscape.org/namespaces/inkscape"
   xmlns:sodipodi="http://sodipodi.sourceforge.net/DTD/sodipodi-0.dtd"
   xmlns="http://www.w3.org/2000/svg"
   xmlns:svg="http://www.w3.org/2000/svg"><sodipodi:namedview
     id="namedview1"
     pagecolor="#ffffff"
     bordercolor="#000000"
     borderopacity="0.25"
     inkscape:showpageshadow="2"
     inkscape:pageopacity="0.0"
     inkscape:pagecheckerboard="0"
     inkscape:deskcolor="#d1d1d1"
     inkscape:document-units="mm"
     inkscape:zoom="0.92381453"
     inkscape:cx="327.44668"
     inkscape:cy="915.227"
     inkscape:window-width="2123"
     inkscape:window-height="1243"
     inkscape:window-x="16"
     inkscape:window-y="115"
     inkscape:window-maximized="0"
     inkscape:current-layer="layer1" /><defs
     id="defs1" /><g
     inkscape:label="Camada 1"
     inkscape:groupmode="layer"
     id="layer1"
     transform="translate(37.116753,-222.73989)"><rect
       style="font-variation-settings:'wght' 800;fill:#198754;fill-opacity:1;stroke-width:0.419338"
       id="rect1-3"
       width="224.41702"
       height="65.765884"
       x="-37.116756"
       y="222.7399"
       ry="10.240999" /><path
       d="m -0.73713382,269.57095 c 2.73492802,0 4.68356412,-1.98283 4.68356412,-4.71775 0,-2.73493 -1.9486361,-4.68357 -4.68356412,-4.68357 -2.73492798,0 -4.71775078,1.94864 -4.71775078,4.68357 0,2.73492 1.9828228,4.71775 4.71775078,4.71775 z m 17.91374682,0.10256 c 5.914282,0 10.085047,-3.21354 10.085047,-8.54665 0,-4.78613 -3.760526,-6.73476 -7.418492,-8.23897 -3.8289,-1.5384 -4.957057,-1.88027 -4.957057,-2.90586 0,-0.85467 0.752105,-1.40165 1.777703,-1.40165 1.162344,0 1.880263,0.68373 1.880263,2.05119 h 7.521052 c 0,-5.46985 -3.794713,-9.05945 -9.469688,-9.05945 -5.572416,0 -9.674808,3.04261 -9.674808,7.69199 0,4.54682 4.034019,6.8715 7.589425,8.54665 2.461435,1.16234 4.615191,1.88026 4.615191,3.48703 0,1.0256 -0.820478,1.60677 -2.153756,1.60677 -1.948636,0 -2.666554,-1.23072 -2.666554,-2.63237 H 6.3394608 c 0,5.50405 4.4442582,9.40132 10.8371522,9.40132 z m 16.101871,-0.37606 h 7.794544 v -15.21303 h 3.965646 v -7.00825 h -3.965646 v -5.12799 h -7.794544 v 5.12799 h -3.965646 v 7.00825 h 3.965646 z m 36.648035,-22.22128 h -7.794545 v 12.27298 c 0,1.98283 -1.333278,3.35029 -3.281914,3.35029 -1.948636,0 -3.3161,-1.36746 -3.3161,-3.35029 v -12.27298 h -7.760358 v 13.16184 c 0,5.57241 3.657966,9.4355 8.717583,9.4355 3.042607,0 5.093803,-1.40165 5.914282,-3.0768 v 2.70074 h 7.521052 z m 14.255812,22.59734 c 2.563995,0 4.717751,-0.95723 6.290335,-2.59818 v 2.22212 h 6.768946 V 241.94818 H 89.72056 v 6.70057 c -1.470023,-1.23072 -3.350286,-1.94864 -5.538229,-1.94864 -5.743349,0 -10.15342,4.68357 -10.15342,11.4867 0,6.80313 4.410071,11.4867 10.15342,11.4867 z M 81.48159,258.11844 c 0,-2.35888 1.60677,-3.96565 3.965645,-3.96565 2.324689,0 3.965646,1.60677 3.965646,3.96565 0,2.42725 -1.640957,4.0682 -3.965646,4.0682 -2.358875,0 -3.965645,-1.64095 -3.965645,-4.0682 z m 21.22987,11.17901 h 7.79455 v -17.94796 h -7.79455 z m 0,-20.34102 h 7.79455 v -7.00825 h -7.79455 z m 23.55459,20.71708 c 6.8715,0 11.65763,-4.68357 11.65763,-11.55507 0,-6.83732 -4.78613,-11.4867 -11.65763,-11.4867 -6.87151,0 -11.65763,4.64938 -11.65763,11.4867 0,6.8715 4.78612,11.55507 11.65763,11.55507 z m -4.10239,-11.55507 c 0,-2.46144 1.67514,-4.1024 4.10239,-4.1024 2.42725,0 4.10239,1.64096 4.10239,4.1024 0,2.52981 -1.67514,4.27332 -4.10239,4.27332 -2.42725,0 -4.10239,-1.74351 -4.10239,-4.27332 z m 30.08417,11.17901 h 7.76036 v -22.22128 h -7.76036 v 7.96547 h -4.61519 l 3.76052,-13.09346 h -7.31593 l -3.76052,13.09346 v 7.00826 h 11.93112 z m 13.91398,0 h 7.52105 v -27.34927 h -10.08504 v 7.00825 h 2.56399 z m 13.67462,0 h 7.52105 v -27.34927 h -10.08504 v 7.00825 h 2.56399 z"
       id="text1-7"
       style="font-weight:800;font-size:34.1866px;font-family:'Franie Test';-inkscape-font-specification:'Franie Test, Ultra-Bold';fill:#eeeeee;stroke-width:2.84889"
       aria-label=".Studio411" /></g></svg>
