<?xml version="1.0" encoding="UTF-8" standalone="no"?>
<!-- Created with Inkscape (http://www.inkscape.org/) -->

<svg
   width="232.20717mm"
   height="68.031464mm"
   viewBox="0 0 232.20717 68.031464"
   version="1.1"
   id="svg1"
   sodipodi:docname="logo_Studio411.svg"
   inkscape:version="1.3 (0e150ed6c4, 2023-07-21)"
   xmlns:inkscape="http://www.inkscape.org/namespaces/inkscape"
   xmlns:sodipodi="http://sodipodi.sourceforge.net/DTD/sodipodi-0.dtd"
   xmlns="http://www.w3.org/2000/svg"
   xmlns:svg="http://www.w3.org/2000/svg">
  <sodipodi:namedview
     id="namedview1"
     pagecolor="#ffffff"
     bordercolor="#000000"
     borderopacity="0.25"
     inkscape:showpageshadow="2"
     inkscape:pageopacity="0.0"
     inkscape:pagecheckerboard="0"
     inkscape:deskcolor="#d1d1d1"
     inkscape:document-units="mm"
     inkscape:zoom="0.92381453"
     inkscape:cx="446.5182"
     inkscape:cy="520.12604"
     inkscape:window-width="2123"
     inkscape:window-height="1243"
     inkscape:window-x="1240"
     inkscape:window-y="102"
     inkscape:window-maximized="0"
     inkscape:current-layer="layer1" />
  <defs
     id="defs1" />
  <g
     inkscape:label="Camada 1"
     inkscape:groupmode="layer"
     id="layer1"
     transform="translate(50.004892,-223.88551)">
    <rect
       style="font-variation-settings:'wght' 800;fill:#c0384c;fill-opacity:1;stroke-width:0.433784"
       id="rect1-3"
       width="232.14795"
       height="68.031448"
       x="-50.004894"
       y="223.88551"
       ry="10.593791" />
    <path
       d="m -12.372032,272.32982 c 2.829144,0 4.8449091,-2.05113 4.8449091,-4.88027 0,-2.82915 -2.0157651,-4.84491 -4.8449091,-4.84491 -2.829144,0 -4.880273,2.01576 -4.880273,4.84491 0,2.82914 2.051129,4.88027 4.880273,4.88027 z m 18.5308604,0.10609 c 6.1180236,0 10.4324686,-3.32424 10.4324686,-8.84107 0,-4.951 -3.890073,-6.96677 -7.6740532,-8.5228 -3.9608016,-1.59139 -5.1278234,-1.94503 -5.1278234,-3.00596 0,-0.88411 0.7780146,-1.44994 1.8389435,-1.44994 1.2023862,0 1.9450365,0.70729 1.9450365,2.12186 h 7.7801456 c 0,-5.65829 -3.925437,-9.37154 -9.7959107,-9.37154 -5.76438082,0 -10.0080968,3.14742 -10.0080968,7.95697 0,4.70345 4.17298738,7.10822 7.8508746,8.84107 2.5462295,1.20239 4.7741804,1.94504 4.7741804,3.60716 0,1.06093 -0.8487432,1.66212 -2.2279509,1.66212 -2.015765,0 -2.7584153,-1.27311 -2.7584153,-2.72305 h -8.2398819 c 0,5.69365 4.59735898,9.72518 11.210483,9.72518 z m 16.6565666,-0.389 h 8.06306 v -15.73712 h 4.102259 v -7.24968 h -4.102259 v -5.30464 h -8.06306 v 5.30464 h -4.102259 v 7.24968 h 4.102259 z m 37.910531,-22.9868 h -8.06306 v 12.69578 c 0,2.05113 -1.379208,3.46571 -3.394973,3.46571 -2.015765,0 -3.430337,-1.41458 -3.430337,-3.46571 V 249.06011 H 37.80986 v 13.61526 c 0,5.76438 3.78398,9.76054 9.017896,9.76054 3.147423,0 5.269281,-1.44993 6.118024,-3.18278 v 2.79378 h 7.780146 z m 14.74691,23.3758 c 2.652323,0 4.880273,-0.9902 6.507031,-2.68768 v 2.29868 h 7.002132 v -28.29144 h -7.780146 v 6.9314 c -1.520665,-1.27312 -3.465702,-2.01577 -5.729017,-2.01577 -5.941202,0 -10.503197,4.84491 -10.503197,11.88241 0,7.03749 4.561995,11.8824 10.503197,11.8824 z m -2.79378,-11.95313 c 0,-2.44014 1.662122,-4.10226 4.102259,-4.10226 2.404773,0 4.102259,1.66212 4.102259,4.10226 0,2.51086 -1.697486,4.20835 -4.102259,4.20835 -2.440137,0 -4.102259,-1.69749 -4.102259,-4.20835 z m 21.961228,11.56413 h 8.063056 v -18.56626 h -8.063056 z m 0,-21.04176 h 8.063056 v -7.24968 h -8.063056 z m 24.366026,21.43076 c 7.10822,0 12.05922,-4.84491 12.05922,-11.95313 0,-7.07286 -4.951,-11.88241 -12.05922,-11.88241 -7.10823,0 -12.05923,4.80955 -12.05923,11.88241 0,7.10822 4.951,11.95313 12.05923,11.95313 z m -4.24372,-11.95313 c 0,-2.54623 1.73285,-4.24372 4.24372,-4.24372 2.51086,0 4.24371,1.69749 4.24371,4.24372 0,2.61696 -1.73285,4.42054 -4.24371,4.42054 -2.51087,0 -4.24372,-1.80358 -4.24372,-4.42054 z m 31.12055,11.56413 h 8.0277 v -22.9868 h -8.0277 v 8.23988 h -4.77418 l 3.89007,-13.54452 h -7.56796 l -3.89007,13.54452 v 7.24968 h 12.34214 z m 14.39329,0 h 7.78015 v -28.29144 h -10.43247 v 7.24968 h 2.65232 z m 14.14571,0 h 7.78015 v -28.29144 h -10.43247 v 7.24968 h 2.65232 z"
       id="text1-7"
       style="font-weight:800;font-size:35.3643px;font-family:'Franie Test';-inkscape-font-specification:'Franie Test, Ultra-Bold';fill:#eeeeee;stroke-width:2.94703"
       aria-label=".Studio411" />
  </g>
</svg>
