<?xml version="1.0" encoding="UTF-8" standalone="no"?>
<!-- Created with Inkscape (http://www.inkscape.org/) -->

<svg
   width="232.659mm"
   height="68.163933mm"
   viewBox="0 0 232.659 68.163933"
   version="1.1"
   id="svg1"
   sodipodi:docname="logo_Studio411.svg"
   inkscape:version="1.3 (0e150ed6c4, 2023-07-21)"
   xmlns:inkscape="http://www.inkscape.org/namespaces/inkscape"
   xmlns:sodipodi="http://sodipodi.sourceforge.net/DTD/sodipodi-0.dtd"
   xmlns="http://www.w3.org/2000/svg"
   xmlns:svg="http://www.w3.org/2000/svg">
  <sodipodi:namedview
     id="namedview1"
     pagecolor="#ffffff"
     bordercolor="#000000"
     borderopacity="0.25"
     inkscape:showpageshadow="2"
     inkscape:pageopacity="0.0"
     inkscape:pagecheckerboard="0"
     inkscape:deskcolor="#d1d1d1"
     inkscape:document-units="mm"
     inkscape:zoom="0.92381453"
     inkscape:cx="446.5182"
     inkscape:cy="520.12604"
     inkscape:window-width="2123"
     inkscape:window-height="1243"
     inkscape:window-x="1240"
     inkscape:window-y="102"
     inkscape:window-maximized="0"
     inkscape:current-layer="layer1" />
  <defs
     id="defs1" />
  <g
     inkscape:label="Camada 1"
     inkscape:groupmode="layer"
     id="layer1"
     transform="translate(29.134013,-306.72243)">
    <rect
       style="font-variation-settings:'wght' 800;fill:#f0ae19;fill-opacity:1;stroke-width:0.434629"
       id="rect1-3-6"
       width="232.60004"
       height="68.163933"
       x="-29.134014"
       y="306.72241"
       ry="10.614422" />
    <path
       d="m 8.572122,355.2611 c 2.834648,0 4.854335,-2.05512 4.854335,-4.88977 0,-2.83465 -2.019687,-4.85434 -4.854335,-4.85434 -2.8346481,0 -4.889768,2.01969 -4.889768,4.85434 0,2.83465 2.0551199,4.88977 4.889768,4.88977 z m 18.566912,0.10629 c 6.129927,0 10.452765,-3.33071 10.452765,-8.85827 0,-4.96063 -3.897641,-6.98032 -7.688983,-8.53938 -3.968507,-1.59449 -5.137799,-1.94882 -5.137799,-3.01181 0,-0.88583 0.779528,-1.45276 1.842521,-1.45276 1.204725,0 1.94882,0.70866 1.94882,2.12599 h 7.795283 c 0,-5.6693 -3.933074,-9.38977 -9.814969,-9.38977 -5.775596,0 -10.027568,3.15354 -10.027568,7.97244 0,4.71261 4.181106,7.12206 7.866148,8.85828 2.551184,1.20472 4.783469,1.94882 4.783469,3.61417 0,1.063 -0.850394,1.66536 -2.232285,1.66536 -2.019687,0 -2.763782,-1.27559 -2.763782,-2.72835 h -8.255913 c 0,5.70473 4.606303,9.7441 11.232293,9.7441 z m 16.688969,-0.38976 H 51.90675 V 339.2099 h 4.11024 v -7.26379 h -4.11024 v -5.31496 h -8.078747 v 5.31496 h -4.11024 v 7.26379 h 4.11024 z M 81.81229,331.94611 h -8.078748 v 12.72049 c 0,2.05512 -1.381891,3.47244 -3.401577,3.47244 -2.019687,0 -3.437011,-1.41732 -3.437011,-3.47244 V 331.94611 H 58.85164 v 13.64175 c 0,5.77559 3.791342,9.77953 9.035441,9.77953 3.153546,0 5.279532,-1.45275 6.129926,-3.18897 v 2.79921 h 7.795283 z m 14.775606,23.42128 c 2.657483,0 4.889764,-0.99212 6.519694,-2.69291 v 2.30315 h 7.01575 v -28.34648 h -7.79528 v 6.94489 c -1.52362,-1.27559 -3.472445,-2.01969 -5.740164,-2.01969 -5.952761,0 -10.523631,4.85434 -10.523631,11.90552 0,7.05119 4.57087,11.90552 10.523631,11.90552 z m -2.799215,-11.97638 c 0,-2.44489 1.665356,-4.11024 4.11024,-4.11024 2.409449,0 4.110239,1.66535 4.110239,4.11024 0,2.51575 -1.70079,4.21654 -4.110239,4.21654 -2.444884,0 -4.11024,-1.70079 -4.11024,-4.21654 z m 22.003949,11.58662 h 8.07875 v -18.60238 h -8.07875 z m 0,-21.08269 h 8.07875 v -7.26379 h -8.07875 z m 24.41343,21.47245 c 7.12205,0 12.08269,-4.85433 12.08269,-11.97638 0,-7.08662 -4.96064,-11.90553 -12.08269,-11.90553 -7.12206,0 -12.08269,4.81891 -12.08269,11.90553 0,7.12205 4.96063,11.97638 12.08269,11.97638 z m -4.25197,-11.97638 c 0,-2.55119 1.73622,-4.25198 4.25197,-4.25198 2.51575,0 4.25197,1.70079 4.25197,4.25198 0,2.62205 -1.73622,4.42913 -4.25197,4.42913 -2.51575,0 -4.25197,-1.80708 -4.25197,-4.42913 z m 31.18109,11.58662 h 8.04331 v -23.03152 h -8.04331 v 8.25592 h -4.78347 l 3.89764,-13.57088 h -7.58268 l -3.89765,13.57088 v 7.26378 h 12.36616 z m 14.42131,0 h 7.79528 V 326.63115 H 178.899 v 7.26379 h 2.65749 z m 14.17321,0 h 7.79529 v -28.34648 h -10.45277 v 7.26379 h 2.65748 z"
       id="text1-7-8"
       style="font-weight:800;font-size:35.4331px;font-family:'Franie Test';-inkscape-font-specification:'Franie Test, Ultra-Bold';fill:#333333;stroke-width:2.95277"
       aria-label=".Studio411" />
  </g>
</svg>
